<?xml version="1.0" encoding="iso-8859-1"?>
<!-- Uploaded to: SVG Repo, www.svgrepo.com, Generator: SVG Repo Mixer Tools -->
<svg fill="#000000" height="800px" width="800px" version="1.1" id="Layer_1" xmlns="http://www.w3.org/2000/svg" xmlns:xlink="http://www.w3.org/1999/xlink" 
	 viewBox="0 0 507.165 507.165" xml:space="preserve">
<g>
	<g>
		<path d="M505.752,427.901L377.94,300.129c-1.488-1.492-4.12-1.492-5.604,0l-45.768,45.748c-0.744,0.744-1.16,1.752-1.16,2.804
			c0,1.048,0.416,2.056,1.16,2.796l11.78,11.772l-27.092,27.08c-60.832-48.068-146.772-134.052-194.712-194.812l27.008-27.008
			l11.78,11.78c1.548,1.548,4.056,1.548,5.604,0l45.768-45.756c0.744-0.744,1.16-1.756,1.16-2.804c0-1.04-0.416-2.048-1.16-2.796
			L78.888,1.161c-1.548-1.548-4.056-1.548-5.6,0L27.516,46.909c-0.744,0.744-1.156,1.752-1.156,2.804
			c0,1.04,0.416,2.056,1.156,2.796l11.516,11.516c-12.792,21.1-30.784,50.704-32.828,53.712c-6.748,6.968-7.888,17.876-2.684,26.092
			c83.584,131.764,228.312,276.46,360.144,360.048c3.4,2.148,7.312,3.288,11.328,3.288c5.496,0,10.86-2.18,14.784-5.992
			c2.904-2.008,32.196-20.352,53.112-33.4l11.484,11.484c1.556,1.548,4.06,1.548,5.604,0l45.764-45.756
			c0.744-0.744,1.16-1.752,1.16-2.796C506.912,429.653,506.496,428.645,505.752,427.901z"/>
	</g>
</g>
</svg>